<mxfile host="app.diagrams.net" modified="2023-10-17T04:36:47.478Z" agent="Mozilla/5.0 (Windows NT 10.0; Win64; x64; rv:109.0) Gecko/20100101 Firefox/118.0" version="22.0.4" etag="mQJ3yrC8khBhbrs6u5__" type="github">
  <diagram name="Page-1" id="v8c_9xYw-z0RX0Iw3M79">
    <mxGraphModel>
      <root>
        <mxCell id="0" />
        <mxCell id="1" parent="0" />
      </root>
    </mxGraphModel>
  </diagram>
</mxfile>
